<svg version="1.1" id="Layer_1" xmlns="http://www.w3.org/2000/svg" xmlns:xlink="http://www.w3.org/1999/xlink" x="0px" y="0px"
	 width="100%" viewBox="0 0 400 240" enable-background="new 0 0 400 240" xml:space="preserve">
<path fill="#000000" opacity="1.000000" stroke="none" 
	d="
M300.000000,241.000000 
	C200.000031,241.000000 100.500069,241.000000 1.000080,241.000000 
	C1.000053,161.000061 1.000053,81.000130 1.000027,1.000144 
	C134.333221,1.000096 267.666443,1.000096 400.999756,1.000048 
	C400.999817,80.999855 400.999817,160.999710 400.999908,240.999786 
	C367.500000,241.000000 334.000000,241.000000 300.000000,241.000000 
M255.000000,115.500000 
	C255.000000,125.930992 255.000000,136.361984 255.000000,146.711014 
	C214.686722,146.711014 174.950272,146.711014 134.828400,146.711014 
	C134.828400,107.342316 134.828400,68.261192 134.828400,29.284580 
	C132.356369,29.284580 130.285614,29.284580 128.285614,29.284580 
	C128.285614,71.306236 128.285614,113.042725 128.285614,154.713882 
	C172.974625,154.713882 217.377426,154.713882 261.713135,154.713882 
	C261.713135,112.690842 261.713135,70.954544 261.713135,29.278770 
	C239.010925,29.278770 216.596664,29.278770 194.283844,29.278770 
	C194.283844,31.633055 194.283844,33.703274 194.283844,36.169010 
	C214.638962,36.169010 234.713394,36.169010 255.000000,36.169010 
	C255.000000,62.548721 255.000000,88.524361 255.000000,115.500000 
M201.500000,121.000000 
	C188.070236,121.000000 174.640488,121.000000 160.831940,121.000000 
	C160.831940,90.012665 160.831940,59.598095 160.831940,29.282259 
	C158.369598,29.282259 156.299454,29.282259 154.282990,29.282259 
	C154.282990,62.634941 154.282990,95.704628 154.282990,128.716003 
	C181.303604,128.716003 208.040283,128.716003 234.712448,128.716003 
	C234.712448,121.688965 234.712448,114.948975 234.712448,107.819748 
	C214.687454,107.819748 194.947189,107.819748 174.824890,107.819748 
	C174.824890,81.342903 174.824890,55.262619 174.824890,29.288809 
	C172.017227,29.288809 169.612427,29.288809 167.290146,29.288809 
	C167.290146,57.982079 167.290146,86.385635 167.290146,115.169830 
	C187.665024,115.169830 207.752289,115.169830 227.716064,115.169830 
	C227.716064,117.296989 227.716064,119.036110 227.716064,121.000000 
	C219.123123,121.000000 210.811569,121.000000 201.500000,121.000000 
M231.498383,141.000000 
	C236.929886,141.000000 242.361374,141.000000 247.710663,141.000000 
	C247.710663,125.019005 247.710663,109.614662 247.710663,94.282623 
	C229.674500,94.282623 211.929108,94.282623 194.288971,94.282623 
	C194.288971,96.980423 194.288971,99.387733 194.288971,102.179749 
	C209.982391,102.179749 225.390442,102.179749 240.705978,102.179749 
	C240.705978,112.990570 240.705978,123.396088 240.705978,133.706619 
	C209.675522,133.706619 178.939926,133.706619 147.819580,133.706619 
	C147.819580,98.670036 147.819580,63.925301 147.819580,29.290293 
	C145.017166,29.290293 142.609787,29.290293 140.289032,29.290293 
	C140.289032,66.649643 140.289032,103.718010 140.289032,141.000000 
	C170.551285,141.000000 200.525024,141.000000 231.498383,141.000000 
M140.000000,175.510086 
	C140.000000,171.405640 140.000000,167.301193 140.000000,163.286194 
	C135.689011,163.286194 131.949951,163.286194 128.285873,163.286194 
	C128.285873,179.976730 128.285873,196.379578 128.285873,213.000000 
	C133.046616,213.000000 137.523315,213.000000 142.000031,213.000000 
	C149.889267,212.999985 149.884872,212.999344 151.081284,204.770782 
	C151.118683,204.513596 151.458176,204.300339 152.073303,203.576614 
	C153.286133,204.475113 154.807083,205.166977 155.702621,206.337372 
	C160.710495,212.882324 169.031784,215.076294 176.482376,212.213303 
	C179.965469,210.874878 181.487976,209.116928 181.057205,205.377136 
	C180.759506,202.792648 181.000000,200.146179 181.000000,197.773972 
	C177.457581,199.370316 174.000320,200.928299 170.543045,202.486282 
	C170.210098,201.909439 169.877151,201.332596 169.544189,200.755753 
	C174.384445,197.041519 179.224701,193.327286 184.912064,188.963013 
	C185.177231,196.404846 184.004074,202.930634 188.700455,208.249863 
	C193.800629,214.026474 200.241623,213.272598 206.766998,212.741409 
	C206.766998,208.338516 206.766998,204.251724 206.766998,200.100098 
	C199.672577,202.212784 197.484436,200.264481 196.131180,195.376404 
	C195.125183,191.742676 198.652420,189.570633 207.000000,188.517044 
	C207.000000,186.765839 206.999893,184.959335 207.000015,183.152817 
	C207.000473,176.452286 205.174225,174.673416 198.516113,176.146133 
	C195.528061,176.807068 192.539108,178.557648 190.154190,180.539978 
	C187.826111,182.475113 186.267365,185.335785 184.305603,187.874603 
	C179.499100,178.503632 174.676544,174.759384 167.799637,176.083679 
	C155.354568,178.480301 151.780243,187.288116 153.018234,198.715942 
	C148.359253,198.715942 144.286011,198.715942 140.000000,198.715942 
	C140.000000,191.124908 140.000000,183.816391 140.000000,175.510086 
M248.000000,64.500000 
	C248.000000,56.735012 248.000000,48.970024 248.000000,41.279926 
	C229.679352,41.279926 211.934662,41.279926 194.285751,41.279926 
	C194.285751,43.974773 194.285751,46.381813 194.285751,49.173157 
	C209.975525,49.173157 225.383469,49.173157 240.710266,49.173157 
	C240.710266,59.982521 240.710266,70.387566 240.710266,81.173180 
	C225.006882,81.173180 209.589783,81.173180 194.285248,81.173180 
	C194.285248,83.635818 194.285248,85.705917 194.285248,87.713867 
	C212.308777,87.713867 230.045578,87.713867 248.000000,87.713867 
	C248.000000,80.119446 248.000000,72.809708 248.000000,64.500000 
M268.000000,137.498734 
	C268.000000,143.264832 268.000000,149.030914 268.000000,154.734070 
	C270.610535,154.734070 272.679840,154.734070 274.642090,154.734070 
	C274.642090,112.664810 274.642090,70.862396 274.642090,29.170271 
	C272.329285,29.170271 270.375946,29.170271 268.000000,29.170271 
	C268.000000,65.058945 268.000000,100.779152 268.000000,137.498734 
M273.641388,180.118362 
	C267.418274,175.002777 260.145050,177.682083 253.194443,176.938019 
	C252.710144,180.136581 252.291489,182.901642 251.908752,185.429428 
	C255.860855,187.118668 260.354248,184.066391 263.735840,188.716171 
	C261.619385,188.844727 260.327545,189.081573 259.065948,188.971451 
	C254.460785,188.569473 250.960968,190.715027 250.207886,194.915970 
	C249.409714,199.368195 249.651443,204.196136 250.498749,208.658783 
	C250.827255,210.389023 253.967117,212.625702 255.985397,212.801178 
	C262.201477,213.341583 268.494415,212.998184 275.000000,212.998184 
	C275.000000,203.996384 275.064270,195.530716 274.953888,187.067307 
	C274.927002,185.003723 274.326813,182.947601 273.641388,180.118362 
M209.002869,186.218414 
	C209.668579,188.847900 210.634720,191.445114 210.921600,194.115295 
	C211.257111,197.237976 210.402115,200.579315 211.169052,203.539368 
	C211.934479,206.493683 213.432510,210.083221 215.771057,211.583298 
	C218.340088,213.231216 222.235168,212.811890 225.732590,213.319427 
	C226.482819,208.594299 227.129318,204.522522 227.775742,200.451218 
	C222.429459,199.406540 222.429459,199.406540 223.298370,188.215302 
	C224.437943,188.074203 225.638611,187.925522 226.881027,187.771667 
	C226.881027,184.123871 226.881027,180.837601 226.881027,177.175110 
	C225.605637,177.055786 224.408295,176.943756 222.860092,176.798904 
	C222.860092,173.061951 222.860092,169.648117 222.860092,166.256989 
	C218.727646,166.256989 214.991379,166.256989 211.458130,166.256989 
	C210.614594,172.788544 209.807404,179.038666 209.002869,186.218414 
M215.488556,68.000000 
	C208.380188,68.000000 201.271835,68.000000 194.287476,68.000000 
	C194.287476,70.639275 194.287476,72.709602 194.287476,74.708878 
	C207.982666,74.708878 221.388367,74.708878 234.704819,74.708878 
	C234.704819,68.006989 234.704819,61.600910 234.704819,55.287430 
	C220.991669,55.287430 207.575485,55.287430 194.294205,55.287430 
	C194.294205,57.650867 194.294205,59.721325 194.294205,62.172188 
	C205.674805,62.172188 216.765915,62.172188 228.050873,62.172188 
	C227.954727,64.314621 227.876587,66.055901 227.789352,68.000000 
	C223.775406,68.000000 220.128586,68.000000 215.488556,68.000000 
M244.964417,190.023010 
	C246.225723,190.023010 247.487015,190.023010 248.780243,190.023010 
	C248.780243,185.420654 248.780243,181.311478 248.780243,177.413330 
	C242.811386,177.413330 237.066269,177.413330 231.236023,177.413330 
	C231.236023,189.205536 231.236023,200.947205 231.236023,212.761810 
	C234.880875,212.761810 238.285385,212.761810 242.000000,212.761810 
	C242.000000,208.063324 241.740829,203.575989 242.090973,199.136734 
	C242.325119,196.168289 243.425400,193.268143 244.964417,190.023010 
z"/>
<path fill="#FFFFFF" opacity="1.000000" stroke="none" 
	d="
M255.000000,115.000000 
	C255.000000,88.524361 255.000000,62.548721 255.000000,36.169010 
	C234.713394,36.169010 214.638962,36.169010 194.283844,36.169010 
	C194.283844,33.703274 194.283844,31.633055 194.283844,29.278770 
	C216.596664,29.278770 239.010925,29.278770 261.713135,29.278770 
	C261.713135,70.954544 261.713135,112.690842 261.713135,154.713882 
	C217.377426,154.713882 172.974625,154.713882 128.285614,154.713882 
	C128.285614,113.042725 128.285614,71.306236 128.285614,29.284580 
	C130.285614,29.284580 132.356369,29.284580 134.828400,29.284580 
	C134.828400,68.261192 134.828400,107.342316 134.828400,146.711014 
	C174.950272,146.711014 214.686722,146.711014 255.000000,146.711014 
	C255.000000,136.361984 255.000000,125.930992 255.000000,115.000000 
z"/>
<path fill="#FFFFFF" opacity="1.000000" stroke="none" 
	d="
M202.000000,121.000000 
	C210.811569,121.000000 219.123123,121.000000 227.716064,121.000000 
	C227.716064,119.036110 227.716064,117.296989 227.716064,115.169830 
	C207.752289,115.169830 187.665024,115.169830 167.290146,115.169830 
	C167.290146,86.385635 167.290146,57.982079 167.290146,29.288809 
	C169.612427,29.288809 172.017227,29.288809 174.824890,29.288809 
	C174.824890,55.262619 174.824890,81.342903 174.824890,107.819748 
	C194.947189,107.819748 214.687454,107.819748 234.712448,107.819748 
	C234.712448,114.948975 234.712448,121.688965 234.712448,128.716003 
	C208.040283,128.716003 181.303604,128.716003 154.282990,128.716003 
	C154.282990,95.704628 154.282990,62.634941 154.282990,29.282259 
	C156.299454,29.282259 158.369598,29.282259 160.831940,29.282259 
	C160.831940,59.598095 160.831940,90.012665 160.831940,121.000000 
	C174.640488,121.000000 188.070236,121.000000 202.000000,121.000000 
z"/>
<path fill="#FFFFFF" opacity="1.000000" stroke="none" 
	d="
M230.998566,141.000000 
	C200.525024,141.000000 170.551285,141.000000 140.289032,141.000000 
	C140.289032,103.718010 140.289032,66.649643 140.289032,29.290293 
	C142.609787,29.290293 145.017166,29.290293 147.819580,29.290293 
	C147.819580,63.925301 147.819580,98.670036 147.819580,133.706619 
	C178.939926,133.706619 209.675522,133.706619 240.705978,133.706619 
	C240.705978,123.396088 240.705978,112.990570 240.705978,102.179749 
	C225.390442,102.179749 209.982391,102.179749 194.288971,102.179749 
	C194.288971,99.387733 194.288971,96.980423 194.288971,94.282623 
	C211.929108,94.282623 229.674500,94.282623 247.710663,94.282623 
	C247.710663,109.614662 247.710663,125.019005 247.710663,141.000000 
	C242.361374,141.000000 236.929886,141.000000 230.998566,141.000000 
z"/>
<path fill="#FFFFFF" opacity="1.000000" stroke="none" 
	d="
M140.000000,176.008972 
	C140.000000,183.816391 140.000000,191.124908 140.000000,198.715942 
	C144.286011,198.715942 148.359253,198.715942 153.018234,198.715942 
	C151.780243,187.288116 155.354568,178.480301 167.799637,176.083679 
	C174.676544,174.759384 179.499100,178.503632 184.305603,187.874603 
	C186.267365,185.335785 187.826111,182.475113 190.154190,180.539978 
	C192.539108,178.557648 195.528061,176.807068 198.516113,176.146133 
	C205.174225,174.673416 207.000473,176.452286 207.000015,183.152817 
	C206.999893,184.959335 207.000000,186.765839 207.000000,188.517044 
	C198.652420,189.570633 195.125183,191.742676 196.131180,195.376404 
	C197.484436,200.264481 199.672577,202.212784 206.766998,200.100098 
	C206.766998,204.251724 206.766998,208.338516 206.766998,212.741409 
	C200.241623,213.272598 193.800629,214.026474 188.700455,208.249863 
	C184.004074,202.930634 185.177231,196.404846 184.912064,188.963013 
	C179.224701,193.327286 174.384445,197.041519 169.544189,200.755753 
	C169.877151,201.332596 170.210098,201.909439 170.543045,202.486282 
	C174.000320,200.928299 177.457581,199.370316 181.000000,197.773972 
	C181.000000,200.146179 180.759506,202.792648 181.057205,205.377136 
	C181.487976,209.116928 179.965469,210.874878 176.482376,212.213303 
	C169.031784,215.076294 160.710495,212.882324 155.702621,206.337372 
	C154.807083,205.166977 153.286133,204.475113 152.073303,203.576614 
	C151.458176,204.300339 151.118683,204.513596 151.081284,204.770782 
	C149.884872,212.999344 149.889267,212.999985 142.000031,213.000000 
	C137.523315,213.000000 133.046616,213.000000 128.285873,213.000000 
	C128.285873,196.379578 128.285873,179.976730 128.285873,163.286194 
	C131.949951,163.286194 135.689011,163.286194 140.000000,163.286194 
	C140.000000,167.301193 140.000000,171.405640 140.000000,176.008972 
z"/>
<path fill="#FFFFFF" opacity="1.000000" stroke="none" 
	d="
M248.000000,64.999985 
	C248.000000,72.809708 248.000000,80.119446 248.000000,87.713867 
	C230.045578,87.713867 212.308777,87.713867 194.285248,87.713867 
	C194.285248,85.705917 194.285248,83.635818 194.285248,81.173180 
	C209.589783,81.173180 225.006882,81.173180 240.710266,81.173180 
	C240.710266,70.387566 240.710266,59.982521 240.710266,49.173157 
	C225.383469,49.173157 209.975525,49.173157 194.285751,49.173157 
	C194.285751,46.381813 194.285751,43.974773 194.285751,41.279926 
	C211.934662,41.279926 229.679352,41.279926 248.000000,41.279926 
	C248.000000,48.970024 248.000000,56.735012 248.000000,64.999985 
z"/>
<path fill="#FFFFFF" opacity="1.000000" stroke="none" 
	d="
M268.000000,136.999054 
	C268.000000,100.779152 268.000000,65.058945 268.000000,29.170271 
	C270.375946,29.170271 272.329285,29.170271 274.642090,29.170271 
	C274.642090,70.862396 274.642090,112.664810 274.642090,154.734070 
	C272.679840,154.734070 270.610535,154.734070 268.000000,154.734070 
	C268.000000,149.030914 268.000000,143.264832 268.000000,136.999054 
z"/>
<path fill="#FFFFFF" opacity="1.000000" stroke="none" 
	d="
M273.815796,180.503204 
	C274.326813,182.947601 274.927002,185.003723 274.953888,187.067307 
	C275.064270,195.530716 275.000000,203.996384 275.000000,212.998184 
	C268.494415,212.998184 262.201477,213.341583 255.985397,212.801178 
	C253.967117,212.625702 250.827255,210.389023 250.498749,208.658783 
	C249.651443,204.196136 249.409714,199.368195 250.207886,194.915970 
	C250.960968,190.715027 254.460785,188.569473 259.065948,188.971451 
	C260.327545,189.081573 261.619385,188.844727 263.735840,188.716171 
	C260.354248,184.066391 255.860855,187.118668 251.908752,185.429428 
	C252.291489,182.901642 252.710144,180.136581 253.194443,176.938019 
	C260.145050,177.682083 267.418274,175.002777 273.815796,180.503204 
z"/>
<path fill="#FFFFFF" opacity="1.000000" stroke="none" 
	d="
M209.001541,185.753601 
	C209.807404,179.038666 210.614594,172.788544 211.458130,166.256989 
	C214.991379,166.256989 218.727646,166.256989 222.860092,166.256989 
	C222.860092,169.648117 222.860092,173.061951 222.860092,176.798904 
	C224.408295,176.943756 225.605637,177.055786 226.881027,177.175110 
	C226.881027,180.837601 226.881027,184.123871 226.881027,187.771667 
	C225.638611,187.925522 224.437943,188.074203 223.298370,188.215302 
	C222.429459,199.406540 222.429459,199.406540 227.775742,200.451218 
	C227.129318,204.522522 226.482819,208.594299 225.732590,213.319427 
	C222.235168,212.811890 218.340088,213.231216 215.771057,211.583298 
	C213.432510,210.083221 211.934479,206.493683 211.169052,203.539368 
	C210.402115,200.579315 211.257111,197.237976 210.921600,194.115295 
	C210.634720,191.445114 209.668579,188.847900 209.001541,185.753601 
z"/>
<path fill="#FFFFFF" opacity="1.000000" stroke="none" 
	d="
M215.985153,68.000000 
	C220.128586,68.000000 223.775406,68.000000 227.789352,68.000000 
	C227.876587,66.055901 227.954727,64.314621 228.050873,62.172188 
	C216.765915,62.172188 205.674805,62.172188 194.294205,62.172188 
	C194.294205,59.721325 194.294205,57.650867 194.294205,55.287430 
	C207.575485,55.287430 220.991669,55.287430 234.704819,55.287430 
	C234.704819,61.600910 234.704819,68.006989 234.704819,74.708878 
	C221.388367,74.708878 207.982666,74.708878 194.287476,74.708878 
	C194.287476,72.709602 194.287476,70.639275 194.287476,68.000000 
	C201.271835,68.000000 208.380188,68.000000 215.985153,68.000000 
z"/>
<path fill="#FFFFFF" opacity="1.000000" stroke="none" 
	d="
M244.551270,190.180222 
	C243.425400,193.268143 242.325119,196.168289 242.090973,199.136734 
	C241.740829,203.575989 242.000000,208.063324 242.000000,212.761810 
	C238.285385,212.761810 234.880875,212.761810 231.236023,212.761810 
	C231.236023,200.947205 231.236023,189.205536 231.236023,177.413330 
	C237.066269,177.413330 242.811386,177.413330 248.780243,177.413330 
	C248.780243,181.311478 248.780243,185.420654 248.780243,190.023010 
	C247.487015,190.023010 246.225723,190.023010 244.551270,190.180222 
z"/>
</svg>